<mxfile host="Electron" modified="2024-05-16T06:12:41.564Z" agent="Mozilla/5.0 (Windows NT 10.0; Win64; x64) AppleWebKit/537.36 (KHTML, like Gecko) draw.io/23.1.5 Chrome/120.0.6099.109 Electron/28.1.0 Safari/537.36" etag="E9oMIR_WhIjgbDDtqf8j" version="23.1.5" type="device">
  <diagram name="Leht-1" id="XDc0ud96cIl3pXLxBiPN">
    <mxGraphModel dx="668" dy="911" grid="1" gridSize="10" guides="1" tooltips="1" connect="1" arrows="1" fold="1" page="1" pageScale="1" pageWidth="827" pageHeight="1169" math="0" shadow="0">
      <root>
        <mxCell id="0" />
        <mxCell id="1" parent="0" />
        <mxCell id="lBt13Boba9C3JTCw1wqN-3" style="edgeStyle=orthogonalEdgeStyle;rounded=0;orthogonalLoop=1;jettySize=auto;html=1;entryX=0.5;entryY=0;entryDx=0;entryDy=0;" edge="1" parent="1" source="lBt13Boba9C3JTCw1wqN-1" target="lBt13Boba9C3JTCw1wqN-2">
          <mxGeometry relative="1" as="geometry" />
        </mxCell>
        <mxCell id="lBt13Boba9C3JTCw1wqN-1" value="START" style="ellipse;whiteSpace=wrap;html=1;" vertex="1" parent="1">
          <mxGeometry x="280" y="50" width="120" height="80" as="geometry" />
        </mxCell>
        <mxCell id="lBt13Boba9C3JTCw1wqN-10" style="edgeStyle=orthogonalEdgeStyle;rounded=0;orthogonalLoop=1;jettySize=auto;html=1;entryX=0.5;entryY=0;entryDx=0;entryDy=0;" edge="1" parent="1" source="lBt13Boba9C3JTCw1wqN-2" target="lBt13Boba9C3JTCw1wqN-4">
          <mxGeometry relative="1" as="geometry" />
        </mxCell>
        <mxCell id="lBt13Boba9C3JTCw1wqN-2" value="&lt;div&gt;&lt;div&gt;Console.WriteLine(&quot;Hello, World!&quot;);&lt;/div&gt;&lt;div&gt;int auto = 1000;&lt;/div&gt;&lt;div&gt;int rekka = 5000;&lt;/div&gt;&lt;/div&gt;" style="rounded=1;whiteSpace=wrap;html=1;" vertex="1" parent="1">
          <mxGeometry x="280" y="200" width="120" height="60" as="geometry" />
        </mxCell>
        <mxCell id="lBt13Boba9C3JTCw1wqN-6" style="edgeStyle=orthogonalEdgeStyle;rounded=0;orthogonalLoop=1;jettySize=auto;html=1;entryX=0;entryY=0.5;entryDx=0;entryDy=0;" edge="1" parent="1" source="lBt13Boba9C3JTCw1wqN-4" target="lBt13Boba9C3JTCw1wqN-5">
          <mxGeometry relative="1" as="geometry" />
        </mxCell>
        <mxCell id="lBt13Boba9C3JTCw1wqN-12" style="edgeStyle=orthogonalEdgeStyle;rounded=0;orthogonalLoop=1;jettySize=auto;html=1;entryX=0.5;entryY=0;entryDx=0;entryDy=0;" edge="1" parent="1" source="lBt13Boba9C3JTCw1wqN-4" target="lBt13Boba9C3JTCw1wqN-11">
          <mxGeometry relative="1" as="geometry" />
        </mxCell>
        <mxCell id="lBt13Boba9C3JTCw1wqN-4" value="if (auto &amp;lt; rekka)" style="rhombus;whiteSpace=wrap;html=1;" vertex="1" parent="1">
          <mxGeometry x="300" y="320" width="80" height="80" as="geometry" />
        </mxCell>
        <mxCell id="lBt13Boba9C3JTCw1wqN-22" style="edgeStyle=orthogonalEdgeStyle;rounded=0;orthogonalLoop=1;jettySize=auto;html=1;entryX=0.5;entryY=0;entryDx=0;entryDy=0;" edge="1" parent="1" source="lBt13Boba9C3JTCw1wqN-5" target="lBt13Boba9C3JTCw1wqN-21">
          <mxGeometry relative="1" as="geometry" />
        </mxCell>
        <mxCell id="lBt13Boba9C3JTCw1wqN-5" value="&lt;div&gt;&lt;div&gt;int vahe = (rekka - auto);&amp;nbsp;&lt;/div&gt;&lt;div&gt;Console.WriteLine(&quot;auto on &quot; + vahe + &quot; kg kergem kui rekka&quot;);&lt;/div&gt;&lt;/div&gt;" style="rounded=1;whiteSpace=wrap;html=1;" vertex="1" parent="1">
          <mxGeometry x="510" y="330" width="120" height="60" as="geometry" />
        </mxCell>
        <mxCell id="lBt13Boba9C3JTCw1wqN-9" value="true" style="text;html=1;align=center;verticalAlign=middle;resizable=0;points=[];autosize=1;strokeColor=none;fillColor=none;" vertex="1" parent="1">
          <mxGeometry x="410" y="328" width="40" height="30" as="geometry" />
        </mxCell>
        <mxCell id="lBt13Boba9C3JTCw1wqN-14" style="edgeStyle=orthogonalEdgeStyle;rounded=0;orthogonalLoop=1;jettySize=auto;html=1;entryX=0;entryY=0.5;entryDx=0;entryDy=0;" edge="1" parent="1" source="lBt13Boba9C3JTCw1wqN-11" target="lBt13Boba9C3JTCw1wqN-13">
          <mxGeometry relative="1" as="geometry" />
        </mxCell>
        <mxCell id="lBt13Boba9C3JTCw1wqN-11" value="else" style="rhombus;whiteSpace=wrap;html=1;" vertex="1" parent="1">
          <mxGeometry x="300" y="450" width="80" height="80" as="geometry" />
        </mxCell>
        <mxCell id="lBt13Boba9C3JTCw1wqN-23" style="edgeStyle=orthogonalEdgeStyle;rounded=0;orthogonalLoop=1;jettySize=auto;html=1;entryX=0;entryY=0.5;entryDx=0;entryDy=0;" edge="1" parent="1" source="lBt13Boba9C3JTCw1wqN-13" target="lBt13Boba9C3JTCw1wqN-21">
          <mxGeometry relative="1" as="geometry">
            <Array as="points">
              <mxPoint x="570" y="650" />
            </Array>
          </mxGeometry>
        </mxCell>
        <mxCell id="lBt13Boba9C3JTCw1wqN-13" value="Console.WriteLine(&quot;rekka on raskem kui auto&quot;);" style="rounded=1;whiteSpace=wrap;html=1;" vertex="1" parent="1">
          <mxGeometry x="510" y="460" width="120" height="60" as="geometry" />
        </mxCell>
        <mxCell id="lBt13Boba9C3JTCw1wqN-16" value="true" style="text;html=1;align=center;verticalAlign=middle;resizable=0;points=[];autosize=1;strokeColor=none;fillColor=none;" vertex="1" parent="1">
          <mxGeometry x="420" y="458" width="40" height="30" as="geometry" />
        </mxCell>
        <mxCell id="lBt13Boba9C3JTCw1wqN-17" value="false" style="text;html=1;align=center;verticalAlign=middle;resizable=0;points=[];autosize=1;strokeColor=none;fillColor=none;" vertex="1" parent="1">
          <mxGeometry x="295" y="398" width="50" height="30" as="geometry" />
        </mxCell>
        <mxCell id="lBt13Boba9C3JTCw1wqN-21" value="END" style="ellipse;whiteSpace=wrap;html=1;" vertex="1" parent="1">
          <mxGeometry x="640" y="610" width="120" height="80" as="geometry" />
        </mxCell>
      </root>
    </mxGraphModel>
  </diagram>
</mxfile>
